<?xml version="1.0" encoding="utf-8"?>
<!-- Generator: Adobe Illustrator 26.3.1, SVG Export Plug-In . SVG Version: 6.00 Build 0)  -->
<svg version="1.1" id="Ebene_1" xmlns="http://www.w3.org/2000/svg" xmlns:xlink="http://www.w3.org/1999/xlink" x="0px" y="0px"
	 viewBox="0 0 334.4 318.1" style="enable-background:new 0 0 334.4 318.1;" xml:space="preserve">
<style type="text/css">
	.st0{fill:url(#SVGID_1_);}
</style>
<g>
	
		<linearGradient id="SVGID_1_" gradientUnits="userSpaceOnUse" x1="59.3194" y1="5.3926" x2="281.1185" y2="251.7254" gradientTransform="matrix(1 0 0 -1 0 317.3683)">
		<stop  offset="6.119118e-02" style="stop-color:#F24E0A"/>
		<stop  offset="6.963816e-02" style="stop-color:#F35209"/>
		<stop  offset="0.1541" style="stop-color:#F77503"/>
		<stop  offset="0.1994" style="stop-color:#F98300"/>
		<stop  offset="0.2181" style="stop-color:#F99300"/>
		<stop  offset="0.2724" style="stop-color:#F9BB00"/>
		<stop  offset="0.3154" style="stop-color:#F9D500"/>
		<stop  offset="0.3413" style="stop-color:#F9DE00"/>
		<stop  offset="0.3613" style="stop-color:#F0DC04"/>
		<stop  offset="0.3944" style="stop-color:#D7D710"/>
		<stop  offset="0.4365" style="stop-color:#AECF23"/>
		<stop  offset="0.4853" style="stop-color:#76C43C"/>
		<stop  offset="0.5053" style="stop-color:#5DBF48"/>
		<stop  offset="0.5382" style="stop-color:#4EB962"/>
		<stop  offset="0.608" style="stop-color:#28AAA4"/>
		<stop  offset="0.6709" style="stop-color:#039BE5"/>
		<stop  offset="0.8651" style="stop-color:#9A4CC0"/>
	</linearGradient>
	<path class="st0" d="M173.2,0.2C128.6-2.3,89.5,22.5,70.9,59.4c-3.3,6.5,4.1,13.2,10.3,9.4c16.3-9.9,35.4-15.7,55.8-15.7
		c59.4,0,107.7,48.3,107.7,107.7v0.2c0,7.3,9.4,10.3,13.3,4.1c11.4-17.9,17.7-39.5,16.6-62.5C272.2,48,227.9,3.2,173.2,0.2
		 M316.8,269.6c24.4-37.4,22.5-83.7-0.1-118.2c-4-6.1-13.5-3.1-13.3,4.2c0.5,19.1-4.1,38.5-14.3,56.2
		c-29.7,51.4-95.7,69.1-147.1,39.4c-0.1,0-0.1-0.1-0.2-0.1c-6.3-3.7-13.6,3-10.3,9.5c9.8,18.8,25.3,35,45.8,45.6
		C225.9,331.4,286.8,315.5,316.8,269.6 M11.4,259c20.1,39.8,61.2,61.3,102.4,59c7.2-0.4,9.4-10.1,3-13.6
		c-16.8-9.1-31.3-22.8-41.5-40.5c-29.7-51.4-12-117.4,39.4-147.1c0.1,0,0.1-0.1,0.2-0.1c6.3-3.6,4.2-13.3-3.1-13.6
		c-21.2-0.9-43,4.4-62.4,16.8C3.4,149.4-13.3,210,11.4,259 M173.2,0.2C128.6-2.3,89.5,22.5,70.9,59.4c-3.3,6.5,4.1,13.2,10.3,9.4
		c16.3-9.9,35.4-15.7,55.8-15.7c59.4,0,107.7,48.3,107.7,107.7v0.2c0,7.3,9.4,10.3,13.3,4.1c11.4-17.9,17.7-39.5,16.6-62.5
		C272.2,48,227.9,3.2,173.2,0.2 M316.8,269.6c24.4-37.4,22.5-83.7-0.1-118.2c-4-6.1-13.5-3.1-13.3,4.2c0.5,19.1-4.1,38.5-14.3,56.2
		c-29.7,51.4-95.7,69.1-147.1,39.4c-0.1,0-0.1-0.1-0.2-0.1c-6.3-3.7-13.6,3-10.3,9.5c9.8,18.8,25.3,35,45.8,45.6
		C225.9,331.4,286.8,315.5,316.8,269.6 M11.4,259c20.1,39.8,61.2,61.3,102.4,59c7.2-0.4,9.4-10.1,3-13.6
		c-16.8-9.1-31.3-22.8-41.5-40.5c-29.7-51.4-12-117.4,39.4-147.1c0.1,0,0.1-0.1,0.2-0.1c6.3-3.6,4.2-13.3-3.1-13.6
		c-21.2-0.9-43,4.4-62.4,16.8C3.4,149.4-13.3,210,11.4,259"/>
</g>
</svg>
