<?xml version="1.0" encoding="UTF-8"?>
<svg width="664px" height="349px" viewBox="0 0 664 349" version="1.1" xmlns="http://www.w3.org/2000/svg" xmlns:xlink="http://www.w3.org/1999/xlink">
    <title>Artboard</title>
    <g id="Artboard" stroke="none" stroke-width="1" fill="none" fill-rule="evenodd">
        <g id="Rectangle-Copy-6-+-Rectangle-Copy-4-+-Rectangle-Copy-3-+-Rectangle-Copy-2-+-Rectangle-Copy-+-Rectangle-Mask" transform="translate(217.000000, 68.000000)">
            <path d="M114.564646,202.522624 C110.897962,204.651333 106.960099,206.447403 102.954664,207.909943 C94.7392998,210.903691 85.8447451,212.5 76.5430676,212.5 C55.1738461,212.5 35.8758914,203.884344 22.0675033,190.001899 L130.95433,190.001424 C126.117663,194.866883 120.608942,199.09413 114.564646,202.522624 Z M155.27843,212.5 C146.199354,212.5 137.518606,210.86 129.5,207.973953 C136.722577,203.007112 143.115402,196.923331 148.466838,190.001582 L208.756075,190.002041 C195.258242,203.874622 176.29463,212.5 155.27843,212.5 Z" id="Combined-Shape" fill="#9A4CC0"></path>
            <path d="M76.4751397,180.638033 L77.221991,180.638033 C81.2957093,180.571148 85.1658217,179.972755 88.9000783,178.841962 C99.8987976,175.649345 109.064619,168.332186 114.497074,158.687449 C118.706114,158.687449 122.847583,158.420803 126.921479,157.82241 C135.612516,156.55874 143.895453,154.097392 151.5,150.572136 C150.345937,157.090248 148.376561,163.343498 145.592762,169.197225 C144.031487,172.52272 142.198145,175.782222 140.161197,178.775078 C136.927998,183.592405 133.143504,188.033412 128.890622,192.000575 L24.1336784,192.001682 C12.131432,180.818563 3.85892913,165.829755 1.32147546,148.999833 L34.4670839,148.999782 C39.3952636,167.23311 56.3563807,180.638033 76.4751397,180.638033 Z M206.735407,192.000754 L146.873286,192.000521 C149.707339,188.552182 152.275446,184.878443 154.549465,181.016404 L155.27843,181.016404 C175.212134,181.016404 191.970554,167.395441 196.490839,149.000101 L228.82474,149.000281 C226.526607,165.810917 218.493103,180.807924 206.735407,192.000754 Z M102.899885,155.533066 C98.3182981,161.01696 91.8504345,164.96981 84.4393445,166.5 C81.7292414,160.994713 79.7973911,155.121603 78.6437102,149.000156 L107.02056,148.999708 C105.923566,151.348722 104.542349,153.53364 102.899885,155.533066 Z M122.449877,149.30006 C121.566989,149.367004 120.684992,149.433948 119.734532,149.5 L119.846475,148.999708 L125.251505,149.000983 C124.323003,149.117115 123.389036,149.21691 122.449877,149.30006 Z" id="Combined-Shape" fill="#039BE5"></path>
            <path d="M46.601087,107.135592 C43.7494486,109.796701 41.2373608,112.789557 39.2005017,116.115944 C35.2625503,122.501179 33.0219963,130.018099 33.0219963,138.066528 C33.0219963,142.210938 33.6255938,146.21521 34.7509862,150.000297 L1.47927136,149.99942 C0.834891304,146.093366 0.5,142.085145 0.5,137.999643 C0.5,126.947207 2.95841198,116.446797 7.37892344,106.999563 L46.7496276,106.998308 C46.7000056,107.043954 46.6504919,107.089716 46.601087,107.135592 Z M115.969716,115.554065 C115.700626,116.000299 115.430654,116.382419 115.161564,116.828654 C111.725153,122.695523 109.771825,129.454006 109.771825,136.595464 C109.771825,139.847333 109.232763,142.907713 108.289625,145.840721 C107.800477,147.280502 107.212785,148.668441 106.531001,150.000392 L78.8395135,149.999973 C78.7480848,149.55014 78.6608963,149.098917 78.5779479,148.646355 C77.8368477,144.756765 77.5,140.739801 77.5,136.595464 C77.5,126.003692 79.9370171,116.035384 84.2901348,106.99877 L123.199977,106.998875 C120.406718,109.512367 117.971859,112.384099 115.969716,115.554065 Z M229.5,139.038569 C229.5,142.763959 229.220473,146.424182 228.681026,149.999834 L196.231816,150.000087 C197.183396,146.506905 197.691127,142.832279 197.691127,139.038569 C197.691127,131.102378 195.504235,123.691163 191.660685,117.394092 C193.607377,114.063866 195.331173,110.593227 196.810429,106.999258 L222.092646,106.99908 C226.839517,116.690775 229.5,127.562908 229.5,139.038569 Z M183.352189,108.688105 C181.654876,111.950522 179.753957,115.145994 177.58097,118.142419 C173.71156,123.468504 169.16198,128.261713 164.070043,132.455993 C160.811451,135.119482 157.280792,137.58303 153.546527,139.646699 C144.24465,144.906732 133.721134,148.302144 122.449877,149.30006 C121.566989,149.367004 120.684992,149.433948 119.734532,149.5 C120.481385,146.304528 120.888598,143.042111 120.888598,139.646699 C120.888598,127.928776 127.338208,117.676487 136.979725,112.083518 L137.01986,112.073197 L137.075124,112.027787 C137.085807,112.021595 137.098644,112.017466 137.115759,112.017466 C137.250904,111.950522 137.386938,111.883578 137.522972,111.817526 C139.944921,110.403553 142.171222,108.797675 144.243284,106.99989 L184.197432,106.99944 C183.922798,107.566132 183.641015,108.12905 183.352189,108.688105 Z" id="Combined-Shape" fill="#5DBF48"></path>
            <path d="M76.5430676,63.5 C78.9193885,63.5 81.2278703,63.6330555 83.4684243,63.8326387 C86.2483042,64.0777434 88.982638,64.4677916 91.6620655,64.9982236 L61.3511123,64.998309 C64.9076349,64.2952364 68.5521629,63.8351765 72.2656545,63.6330555 C73.6914292,63.5665277 75.117204,63.5 76.5430676,63.5 Z M190.413507,62.483539 C190.566265,63.3142008 190.701988,64.1532197 190.821253,64.9988862 L157.7,64.9990813 L157.559155,64.4560329 C156.612967,60.9315665 155.253086,57.534633 153.478065,54.4276461 C146.077996,41.311928 131.819326,32.457167 115.45702,32.457167 C99.0938247,32.457167 84.835866,41.311928 77.4352633,54.4276461 C64.1956032,54.4276461 51.7027962,57.2905394 40.5,62.483539 C43.2281075,46.7596161 50.9634724,32.7210415 62.0385455,21.9970813 L168.847464,21.9978714 C179.937123,32.7308063 187.68303,46.7764023 190.413507,62.483539 Z" id="Combined-Shape" fill="#F98300"></path>
            <path d="M76.5430676,63.5 C78.9193885,63.5 81.2278703,63.6330555 83.4684243,63.8326387 C90.2581919,64.431299 96.7762478,65.8946416 102.886203,68.1562277 C95.8257906,72.9455109 89.5789128,78.7991485 84.2152756,85.3844129 C81.635171,88.5773873 79.3267781,91.9697664 77.221991,95.4950227 L76.4751397,95.4950227 C64.9329082,95.4950227 54.4090618,99.8853179 46.601087,107.135592 C46.2966391,107.419698 45.9960616,107.707586 45.6995194,107.999257 L6.91987255,108.000105 C11.7047514,97.3610599 18.9615584,88.0151405 27.9977319,80.6616575 C31.256671,78.000905 34.7872328,75.5397356 38.5214893,73.4777327 C48.5701071,67.7571505 60.0444107,64.2982436 72.2656545,63.6330555 C73.6914292,63.5665277 75.117204,63.5 76.5430676,63.5 Z M146.085734,65.5 C146.960938,68.4330928 147.5,71.5575021 147.5,74.8093703 C147.5,78.8264192 146.691848,82.6521515 145.209648,86.1591084 C143.727447,89.6023786 141.639133,92.7268734 139.078808,95.405134 C136.922559,97.6363054 134.430169,99.61273 131.599872,101.143775 C131.53282,101.143775 131.53282,101.207034 131.465768,101.207034 C131.330782,101.271149 131.195796,101.334408 131.061692,101.398522 C127.775585,103.223921 124.77362,105.443312 122.125984,108.000023 L83.8176421,107.999575 C84.0204095,107.561214 84.227663,107.124988 84.4393445,106.690929 C84.843597,105.925834 85.1804447,105.160739 85.652102,104.395643 C86.9321761,102.036244 88.3469716,99.7409582 89.8965768,97.508932 C90.3682342,96.8079509 90.9072963,96.106115 91.3784243,95.405134 C97.6442499,86.9880612 105.796352,79.9741474 115.295668,74.8093703 C118.934117,72.7690025 122.841656,71.0474102 126.817129,69.6445932 C132.880034,67.4766811 139.415832,66.0738641 146.085734,65.5 Z M190.503873,62.999539 L190.413507,62.483539 C191.16036,66.5447344 191.5,70.8056915 191.5,75.0666486 C191.5,86.9097235 188.710724,98.0535181 183.703313,107.999663 L143.048152,108.001472 C143.830281,107.368644 144.590597,106.70999 145.331143,106.025509 C148.182521,103.362021 150.69426,100.366489 152.731212,97.0371277 C156.669084,90.646183 158.909643,83.1225415 158.909643,75.0666486 C158.909643,71.6712361 158.502431,68.3423215 157.755578,65.2131686 C157.569377,64.4697367 157.364955,63.7314125 157.142298,62.9996979 L190.503873,62.999539 Z M202.727055,82.5 C211.102147,89.4132734 217.915807,98.1123854 222.573356,107.999742 L196.39069,108.000399 C199.782714,100.055907 201.974286,91.4930714 202.727055,82.5 Z" id="Combined-Shape" fill="#F9DE00"></path>
            <path d="M115.45702,0.5 C137.290049,0.5 156.972813,9.53991313 170.840569,24.0000656 L60.046078,23.9997327 C73.9153292,9.52908491 93.6095829,0.5 115.45702,0.5 Z" id="Combined-Shape" fill="#F24E0A"></path>
        </g>
    </g>
</svg>